<?xml version="1.0" encoding="UTF-8"?>
<svg overflow="visible" viewBox="0 0 955.2 626.4" xmlns="http://www.w3.org/2000/svg">
<defs>
<clipPath id="bound_0" xe_id="bound_0">
<rect x="284.2" y="71.32" width="386.8" height="483.76" pointer-events="all"/>
</clipPath>
</defs>
<g display="none">
<path id="a" x="284.19805907173" y="71.32" width="386.8038818565401" height="483.76" d="m284.2 71.32h386.8v483.76h-386.8z" fill="none" pointer-events="all" stroke="#006400" stroke-miterlimit="null" aHeight="948" aWidth="758.00" cropVal="0" isBleed="0" safeVal="0" xe_id="bound_0"/>
</g>
<g class="layer" clip-path="url(#a)" pointer-events="all" xe_id="Layer_0">
<title>Layer_0</title>
<g transform="rotate(90 477.6 341.53)" pointer-events="bounding-box" type="shape" xe-props="&amp;#35;&amp;#103;&amp;#76;&amp;#73;&amp;#65;&amp;#101;&amp;#122;&amp;#127;&amp;#26;&amp;#67;&amp;#89;&amp;#97;&amp;#40;&amp;#32;&amp;#26;&amp;#28;&amp;#19;&amp;#99;&amp;#55;&amp;#41;&amp;#87;&amp;#66;&amp;#66;&amp;#34;&amp;#98;&amp;#30;&amp;#26;&amp;#19;&amp;#4;&amp;#101;&amp;#60;&amp;#38;&amp;#93;&amp;#85;&amp;#19;&amp;#44;&amp;#122;&amp;#102;&amp;#13;&amp;#85;&amp;#85;&amp;#99;&amp;#61;&amp;#32;&amp;#26;&amp;#109;&amp;#29;&amp;#34;&amp;#40;&amp;#55;&amp;#81;&amp;#83;&amp;#84;&amp;#34;&amp;#98;&amp;#103;&amp;#8;&amp;#30;&amp;#1;&amp;#34;&amp;#116;&amp;#103;&amp;#87;&amp;#82;&amp;#91;&amp;#101;&amp;#59;&amp;#49;&amp;#108;&amp;#89;&amp;#69;&amp;#108;&amp;#61;&amp;#103;&amp;#2;&amp;#18;&amp;#19;&amp;#44;&amp;#122;&amp;#41;&amp;#87;&amp;#83;&amp;#90;&amp;#34;&amp;#98;&amp;#62;&amp;#26;&amp;#83;&amp;#94;&amp;#108;&amp;#55;&amp;#55;&amp;#125;&amp;#84;&amp;#88;&amp;#116;&amp;#122;&amp;#127;&amp;#94;&amp;#81;&amp;#93;&amp;#115;&amp;#61;&amp;#105;&amp;#26;&amp;#66;&amp;#84;&amp;#115;&amp;#49;&amp;#63;&amp;#93;&amp;#18;&amp;#11;&amp;#102;&amp;#57;&amp;#41;&amp;#75;&amp;#85;&amp;#29;&amp;#34;&amp;#53;&amp;#42;&amp;#78;&amp;#85;&amp;#19;&amp;#58;&amp;#62;&amp;#36;&amp;#84;&amp;#67;&amp;#84;&amp;#44;&amp;#122;&amp;#55;&amp;#87;&amp;#68;&amp;#80;&amp;#116;&amp;#61;&amp;#103;&amp;#2;&amp;#86;&amp;#80;&amp;#108;&amp;#43;&amp;#32;&amp;#20;&amp;#18;&amp;#85;&amp;#101;&amp;#52;&amp;#32;&amp;#76;&amp;#85;&amp;#19;&amp;#58;&amp;#62;&amp;#36;&amp;#84;&amp;#67;&amp;#84;&amp;#44;&amp;#122;&amp;#32;&amp;#92;&amp;#89;&amp;#69;&amp;#34;&amp;#98;&amp;#35;&amp;#89;&amp;#92;&amp;#66;&amp;#101;&amp;#37;&amp;#105;&amp;#26;&amp;#86;&amp;#88;&amp;#108;&amp;#52;&amp;#103;&amp;#2;&amp;#18;&amp;#18;&amp;#53;&amp;#61;&amp;#33;&amp;#91;&amp;#85;&amp;#84;&amp;#34;&amp;#116;&amp;#103;&amp;#75;&amp;#68;&amp;#67;&amp;#111;&amp;#51;&amp;#32;&amp;#26;&amp;#10;&amp;#19;&amp;#35;&amp;#109;&amp;#32;&amp;#92;&amp;#83;&amp;#84;&amp;#101;&amp;#122;&amp;#105;&amp;#26;&amp;#67;&amp;#69;&amp;#114;&amp;#55;&amp;#46;&amp;#93;&amp;#103;&amp;#88;&amp;#100;&amp;#44;&amp;#45;&amp;#26;&amp;#10;&amp;#0;&amp;#125;">
<g transform="matrix(2.3345 0 0 2.3345 110.54 72.49)">
<path d="m172.97 51.946q2.15 3.1 3.55 6.6l55.35 98.5 2.4 4.2 0.4 0.85q2.65 7 0.15 13.5-3.5 8.7-14.75 11.35l-6.75 1h-3.25-107.2-2.5l-5.2-0.55q-11.4-2.25-15.2-11-3.1-6.75 0-14.3h-0.1l58.3-105.25q0.95-2.1 2.25-3.95l0.55-0.95 1.25-1.7q6.2-7.7 14.75-7.7 7.9 0 13.9 6.7l1.7 2.15 0.4 0.55" fill="#4e9eed" stroke="#4e9eed" vector-effect="non-scaling-stroke" paint-order="stroke"/>
</g>
</g>
<g pointer-events="bounding-box" type="shape" xe-props="&amp;#35;&amp;#103;&amp;#76;&amp;#73;&amp;#65;&amp;#101;&amp;#122;&amp;#127;&amp;#26;&amp;#67;&amp;#89;&amp;#97;&amp;#40;&amp;#32;&amp;#26;&amp;#28;&amp;#19;&amp;#99;&amp;#55;&amp;#41;&amp;#87;&amp;#66;&amp;#66;&amp;#34;&amp;#98;&amp;#30;&amp;#26;&amp;#19;&amp;#4;&amp;#101;&amp;#60;&amp;#38;&amp;#93;&amp;#85;&amp;#19;&amp;#44;&amp;#122;&amp;#102;&amp;#13;&amp;#85;&amp;#85;&amp;#99;&amp;#61;&amp;#32;&amp;#26;&amp;#109;&amp;#29;&amp;#34;&amp;#40;&amp;#55;&amp;#81;&amp;#83;&amp;#84;&amp;#34;&amp;#98;&amp;#103;&amp;#8;&amp;#30;&amp;#1;&amp;#34;&amp;#116;&amp;#103;&amp;#87;&amp;#82;&amp;#91;&amp;#101;&amp;#59;&amp;#49;&amp;#108;&amp;#89;&amp;#69;&amp;#108;&amp;#61;&amp;#103;&amp;#2;&amp;#18;&amp;#19;&amp;#44;&amp;#122;&amp;#41;&amp;#87;&amp;#83;&amp;#90;&amp;#34;&amp;#98;&amp;#62;&amp;#26;&amp;#83;&amp;#94;&amp;#108;&amp;#55;&amp;#55;&amp;#125;&amp;#84;&amp;#88;&amp;#116;&amp;#122;&amp;#127;&amp;#94;&amp;#81;&amp;#93;&amp;#115;&amp;#61;&amp;#105;&amp;#26;&amp;#66;&amp;#84;&amp;#115;&amp;#49;&amp;#63;&amp;#93;&amp;#18;&amp;#11;&amp;#102;&amp;#57;&amp;#41;&amp;#75;&amp;#85;&amp;#29;&amp;#34;&amp;#53;&amp;#42;&amp;#78;&amp;#85;&amp;#19;&amp;#58;&amp;#62;&amp;#36;&amp;#84;&amp;#67;&amp;#84;&amp;#44;&amp;#122;&amp;#55;&amp;#87;&amp;#68;&amp;#80;&amp;#116;&amp;#61;&amp;#103;&amp;#2;&amp;#86;&amp;#80;&amp;#108;&amp;#43;&amp;#32;&amp;#20;&amp;#18;&amp;#85;&amp;#101;&amp;#52;&amp;#32;&amp;#76;&amp;#85;&amp;#19;&amp;#58;&amp;#62;&amp;#36;&amp;#84;&amp;#67;&amp;#84;&amp;#44;&amp;#122;&amp;#32;&amp;#92;&amp;#89;&amp;#69;&amp;#34;&amp;#98;&amp;#35;&amp;#89;&amp;#92;&amp;#66;&amp;#101;&amp;#37;&amp;#105;&amp;#26;&amp;#86;&amp;#88;&amp;#108;&amp;#52;&amp;#103;&amp;#2;&amp;#18;&amp;#18;&amp;#53;&amp;#61;&amp;#33;&amp;#91;&amp;#85;&amp;#84;&amp;#34;&amp;#116;&amp;#103;&amp;#75;&amp;#68;&amp;#67;&amp;#111;&amp;#51;&amp;#32;&amp;#26;&amp;#10;&amp;#19;&amp;#35;&amp;#109;&amp;#32;&amp;#92;&amp;#83;&amp;#84;&amp;#101;&amp;#122;&amp;#105;&amp;#26;&amp;#67;&amp;#69;&amp;#114;&amp;#55;&amp;#46;&amp;#93;&amp;#103;&amp;#88;&amp;#100;&amp;#44;&amp;#45;&amp;#26;&amp;#10;&amp;#0;&amp;#125;">
<g transform="rotate(90 477.6 321.64)">
<g transform="matrix(2.3345 0 0 2.3345 110.54 72.49)">
<path d="m172.98 43.427q2.15 3.1 3.55 6.6l55.35 98.5 2.4 4.2 0.4 0.85q2.65 7 0.15 13.5-3.5 8.7-14.75 11.35l-6.75 1h-3.25-107.2-2.5l-5.2-0.55q-11.4-2.25-15.2-11-3.1-6.75 0-14.3h-0.1l58.3-105.25q0.95-2.1 2.25-3.95l0.55-0.95 1.25-1.7q6.2-7.7 14.75-7.7 7.9 0 13.9 6.7l1.7 2.15 0.4 0.55" fill="#26c5fd" stroke="#26c5fd" vector-effect="non-scaling-stroke" paint-order="stroke"/>
</g>
</g>
</g>
<g pointer-events="bounding-box" type="shape" xe-props="&amp;#35;&amp;#103;&amp;#76;&amp;#73;&amp;#65;&amp;#101;&amp;#122;&amp;#127;&amp;#26;&amp;#67;&amp;#89;&amp;#97;&amp;#40;&amp;#32;&amp;#26;&amp;#28;&amp;#19;&amp;#99;&amp;#55;&amp;#41;&amp;#87;&amp;#66;&amp;#66;&amp;#34;&amp;#98;&amp;#30;&amp;#26;&amp;#19;&amp;#4;&amp;#101;&amp;#60;&amp;#38;&amp;#93;&amp;#85;&amp;#19;&amp;#44;&amp;#122;&amp;#102;&amp;#13;&amp;#85;&amp;#85;&amp;#99;&amp;#61;&amp;#32;&amp;#26;&amp;#109;&amp;#29;&amp;#34;&amp;#40;&amp;#55;&amp;#81;&amp;#83;&amp;#84;&amp;#34;&amp;#98;&amp;#103;&amp;#8;&amp;#30;&amp;#1;&amp;#34;&amp;#116;&amp;#103;&amp;#87;&amp;#82;&amp;#91;&amp;#101;&amp;#59;&amp;#49;&amp;#108;&amp;#89;&amp;#69;&amp;#108;&amp;#61;&amp;#103;&amp;#2;&amp;#18;&amp;#19;&amp;#44;&amp;#122;&amp;#41;&amp;#87;&amp;#83;&amp;#90;&amp;#34;&amp;#98;&amp;#62;&amp;#26;&amp;#83;&amp;#94;&amp;#108;&amp;#55;&amp;#55;&amp;#125;&amp;#84;&amp;#88;&amp;#116;&amp;#122;&amp;#127;&amp;#94;&amp;#81;&amp;#93;&amp;#115;&amp;#61;&amp;#105;&amp;#26;&amp;#66;&amp;#84;&amp;#115;&amp;#49;&amp;#63;&amp;#93;&amp;#18;&amp;#11;&amp;#102;&amp;#57;&amp;#41;&amp;#75;&amp;#85;&amp;#29;&amp;#34;&amp;#53;&amp;#42;&amp;#78;&amp;#85;&amp;#19;&amp;#58;&amp;#62;&amp;#36;&amp;#84;&amp;#67;&amp;#84;&amp;#44;&amp;#122;&amp;#55;&amp;#87;&amp;#68;&amp;#80;&amp;#116;&amp;#61;&amp;#103;&amp;#2;&amp;#86;&amp;#80;&amp;#108;&amp;#43;&amp;#32;&amp;#20;&amp;#18;&amp;#85;&amp;#101;&amp;#52;&amp;#32;&amp;#76;&amp;#85;&amp;#19;&amp;#58;&amp;#62;&amp;#36;&amp;#84;&amp;#67;&amp;#84;&amp;#44;&amp;#122;&amp;#32;&amp;#92;&amp;#89;&amp;#69;&amp;#34;&amp;#98;&amp;#35;&amp;#89;&amp;#92;&amp;#66;&amp;#101;&amp;#37;&amp;#105;&amp;#26;&amp;#86;&amp;#88;&amp;#108;&amp;#52;&amp;#103;&amp;#2;&amp;#18;&amp;#18;&amp;#53;&amp;#61;&amp;#33;&amp;#91;&amp;#85;&amp;#84;&amp;#34;&amp;#116;&amp;#103;&amp;#75;&amp;#68;&amp;#67;&amp;#111;&amp;#51;&amp;#32;&amp;#26;&amp;#10;&amp;#19;&amp;#35;&amp;#109;&amp;#32;&amp;#92;&amp;#83;&amp;#84;&amp;#101;&amp;#122;&amp;#105;&amp;#26;&amp;#67;&amp;#69;&amp;#114;&amp;#55;&amp;#46;&amp;#93;&amp;#103;&amp;#88;&amp;#100;&amp;#44;&amp;#45;&amp;#26;&amp;#10;&amp;#0;&amp;#125;">
<g transform="rotate(90 477.6 301.64)">
<g transform="matrix(2.3345 0 0 2.3345 110.54 72.49)">
<path d="m172.98 34.859q2.15 3.1 3.55 6.6l55.35 98.5 2.4 4.2 0.4 0.85q2.65 7 0.15 13.5-3.5 8.7-14.75 11.35l-6.75 1h-3.25-107.2-2.5l-5.2-0.55q-11.4-2.25-15.2-11-3.1-6.75 0-14.3h-0.1l58.3-105.25q0.95-2.1 2.25-3.95l0.55-0.95 1.25-1.7q6.2-7.7 14.75-7.7 7.9 0 13.9 6.7l1.7 2.15 0.4 0.55" fill="#f9f9f9" stroke="#f9f9f9" vector-effect="non-scaling-stroke" paint-order="stroke"/>
</g>
</g>
</g>
<g pointer-events="bounding-box" type="shape" xe-props="&amp;#35;&amp;#103;&amp;#76;&amp;#73;&amp;#65;&amp;#101;&amp;#122;&amp;#127;&amp;#26;&amp;#67;&amp;#89;&amp;#97;&amp;#40;&amp;#32;&amp;#26;&amp;#28;&amp;#19;&amp;#99;&amp;#55;&amp;#41;&amp;#87;&amp;#66;&amp;#66;&amp;#34;&amp;#98;&amp;#30;&amp;#26;&amp;#19;&amp;#4;&amp;#101;&amp;#60;&amp;#38;&amp;#93;&amp;#85;&amp;#19;&amp;#44;&amp;#122;&amp;#102;&amp;#13;&amp;#85;&amp;#85;&amp;#99;&amp;#61;&amp;#32;&amp;#26;&amp;#109;&amp;#29;&amp;#34;&amp;#40;&amp;#55;&amp;#81;&amp;#83;&amp;#84;&amp;#34;&amp;#98;&amp;#103;&amp;#8;&amp;#30;&amp;#1;&amp;#34;&amp;#116;&amp;#103;&amp;#87;&amp;#82;&amp;#91;&amp;#101;&amp;#59;&amp;#49;&amp;#108;&amp;#89;&amp;#69;&amp;#108;&amp;#61;&amp;#103;&amp;#2;&amp;#18;&amp;#19;&amp;#44;&amp;#122;&amp;#41;&amp;#87;&amp;#83;&amp;#90;&amp;#34;&amp;#98;&amp;#62;&amp;#26;&amp;#83;&amp;#94;&amp;#108;&amp;#55;&amp;#55;&amp;#125;&amp;#84;&amp;#88;&amp;#116;&amp;#122;&amp;#127;&amp;#94;&amp;#81;&amp;#93;&amp;#115;&amp;#61;&amp;#105;&amp;#26;&amp;#66;&amp;#84;&amp;#115;&amp;#49;&amp;#63;&amp;#93;&amp;#18;&amp;#11;&amp;#102;&amp;#57;&amp;#41;&amp;#75;&amp;#85;&amp;#29;&amp;#34;&amp;#53;&amp;#42;&amp;#78;&amp;#85;&amp;#19;&amp;#58;&amp;#62;&amp;#36;&amp;#84;&amp;#67;&amp;#84;&amp;#44;&amp;#122;&amp;#55;&amp;#87;&amp;#68;&amp;#80;&amp;#116;&amp;#61;&amp;#103;&amp;#2;&amp;#86;&amp;#80;&amp;#108;&amp;#43;&amp;#32;&amp;#20;&amp;#18;&amp;#85;&amp;#101;&amp;#52;&amp;#32;&amp;#76;&amp;#85;&amp;#19;&amp;#58;&amp;#62;&amp;#36;&amp;#84;&amp;#67;&amp;#84;&amp;#44;&amp;#122;&amp;#32;&amp;#92;&amp;#89;&amp;#69;&amp;#34;&amp;#98;&amp;#35;&amp;#89;&amp;#92;&amp;#66;&amp;#101;&amp;#37;&amp;#105;&amp;#26;&amp;#86;&amp;#88;&amp;#108;&amp;#52;&amp;#103;&amp;#2;&amp;#18;&amp;#18;&amp;#53;&amp;#61;&amp;#33;&amp;#91;&amp;#85;&amp;#84;&amp;#34;&amp;#116;&amp;#103;&amp;#75;&amp;#68;&amp;#67;&amp;#111;&amp;#51;&amp;#32;&amp;#26;&amp;#10;&amp;#19;&amp;#35;&amp;#109;&amp;#32;&amp;#92;&amp;#83;&amp;#84;&amp;#101;&amp;#122;&amp;#105;&amp;#26;&amp;#67;&amp;#69;&amp;#114;&amp;#55;&amp;#46;&amp;#93;&amp;#103;&amp;#88;&amp;#100;&amp;#44;&amp;#45;&amp;#26;&amp;#10;&amp;#0;&amp;#125;">
<g transform="rotate(90 477.6 284.87)">
<g transform="matrix(2.3345 0 0 2.3345 110.54 72.49)">
<path d="m172.98 27.673q2.15 3.1 3.55 6.6l55.35 98.5 2.4 4.2 0.4 0.85q2.65 7 0.15 13.5-3.5 8.7-14.75 11.35l-6.75 1h-3.25-107.2-2.5l-5.2-0.55q-11.4-2.25-15.2-11-3.1-6.75 0-14.3h-0.1l58.3-105.25q0.95-2.1 2.25-3.95l0.55-0.95 1.25-1.7q6.2-7.7 14.75-7.7 7.9 0 13.9 6.7l1.7 2.15 0.4 0.55" fill="#5edcee" stroke="#5edcee" vector-effect="non-scaling-stroke" paint-order="stroke"/>
</g>
</g>
</g>
</g>
<g clip-path="url(#a)" display="none">
<rect x="284.2" y="71.32" width="386.8" height="483.76" fill="none" pointer-events="none" stroke="#000" aHeight="948" aWidth="758.00"/>
</g>
</svg>
